<svg width="8" height="15" viewBox="0 0 8 15" fill="none" xmlns="http://www.w3.org/2000/svg">
<path d="M7.7095 14.446C7.81484 14.3405 7.87401 14.1975 7.87401 14.0485C7.87401 13.8994 7.81484 13.7564 7.7095 13.651L1.92044 7.86097C1.92044 7.86097 1.62451 7.59694 1.62451 7.29847C1.62451 7 1.92044 6.73597 1.92044 6.73597L7.7095 0.945969C7.80886 0.839337 7.86296 0.698302 7.86039 0.552577C7.85781 0.406851 7.79878 0.267812 7.69572 0.164752C7.59266 0.0616923 7.45362 0.00265847 7.3079 8.73161e-05C7.16217 -0.00248384 7.02114 0.0516084 6.9145 0.150968L0.164505 6.90097C0.0591673 7.00644 3.1251e-07 7.14941 3.19026e-07 7.29847C3.25542e-07 7.44753 0.0591674 7.5905 0.164505 7.69597L6.91451 14.446C7.01997 14.5513 7.16294 14.6105 7.31201 14.6105C7.46107 14.6105 7.60404 14.5513 7.7095 14.446Z" fill="#1C7FDA"/>
</svg>
